<svg width="512" height="512" viewBox="0 0 512 512" xmlns="http://www.w3.org/2000/svg">
  <!-- Rounded Base Background -->
  <rect x="0" y="0" width="512" height="512" rx="80" fill="#12121C"/>
  
  <!-- UI Layout Containers -->
  <!-- Sidebar -->
  <rect x="40" y="40" width="120" height="432" rx="16" fill="#1C1C2A"/>
  <!-- Topbar -->
  <rect x="180" y="40" width="292" height="64" rx="16" fill="#1C1C2A"/>
  <!-- Terminal Area -->
  <rect x="180" y="124" width="292" height="348" rx="20" fill="#1C1C2A"/>

  <!-- Functional Elements -->
  <!-- Office Selector (Highlight) -->
  <rect x="52" y="52" width="96" height="40" rx="8" fill="#64A0FF"/>
  
  <!-- Desk Items (Taller & Larger - Robust Cards) -->
  <rect x="52" y="120" width="96" height="32" rx="8" fill="#64A0FF" fill-opacity="0.6"/>
  <rect x="52" y="168" width="96" height="32" rx="8" fill="#64A0FF" fill-opacity="0.15"/>
  <rect x="52" y="216" width="96" height="32" rx="8" fill="#64A0FF" fill-opacity="0.1"/>

  <!-- Tabs (Pro Terminal Style) -->
  <rect x="192" y="52" width="76" height="40" rx="8" fill="#64A0FF"/>
  <rect x="276" y="52" width="76" height="40" rx="8" fill="#64A0FF" fill-opacity="0.2"/>
  <rect x="360" y="52" width="76" height="40" rx="8" fill="#64A0FF" fill-opacity="0.2"/>

  <!-- Strong Terminal Content -->
  <path d="M260 230 L320 290 L260 350" stroke="#50DCA0" stroke-width="48" fill="none" stroke-linecap="round" stroke-linejoin="round"/>
  <rect x="345" y="328" width="80" height="22" fill="#50DCA0"/>
</svg>
