<svg xmlns="http://www.w3.org/2000/svg" width="512" height="512" viewBox="0 0 512 512">
    <rect width="512" height="512" fill="#D63C3C" rx="90"/>
    <rect width="130" height="432" x="40" y="40" fill="#12121C" rx="18"/>
    <rect width="286" height="72" x="186" y="40" fill="#12121C" rx="18"/>
    <rect width="286" height="344" x="186" y="128" fill="#12121C" rx="22"/>
    <rect width="106" height="48" x="52" y="52" fill="#50DCA0" rx="8"/>
    <rect width="106" height="32" x="52" y="124" fill="#FFFFFF" fill-opacity=".2" rx="6"/>
    <rect width="106" height="32" x="52" y="176" fill="#FFFFFF" fill-opacity=".1" rx="6"/>
    <rect width="106" height="32" x="52" y="228" fill="#FFFFFF" fill-opacity=".05" rx="6"/>
    <rect width="80" height="44" x="198" y="54" fill="#FFFFFF" rx="8"/>
    <rect width="80" height="44" x="290" y="54" fill="#FFFFFF" fill-opacity=".15" rx="8"/>
    <rect width="80" height="44" x="382" y="54" fill="#FFFFFF" fill-opacity=".15" rx="8"/>
    <g transform="translate(4, 0)">
        <path fill="none" stroke="#50DCA0" stroke-width="56" stroke-linecap="round" stroke-linejoin="round" d="M250 230 L320 300 L250 370"/>
        <rect width="80" height="24" x="340" y="358" fill="#50DCA0" rx="2"/>
    </g>
</svg>